<mxfile host="app.diagrams.net" modified="2021-07-06T06:42:22.194Z" agent="5.0 (Windows NT 10.0; Win64; x64) AppleWebKit/537.36 (KHTML, like Gecko) Chrome/91.0.4472.114 Safari/537.36" etag="dkk5HyLXdlfDX98wSlR-" version="14.8.4" type="github">
  <diagram id="aLHw9vYzfnyol143uTH6" name="第 1 页">
    <mxGraphModel dx="1185" dy="635" grid="1" gridSize="10" guides="1" tooltips="1" connect="1" arrows="1" fold="1" page="1" pageScale="1" pageWidth="1200" pageHeight="1600" math="0" shadow="0">
      <root>
        <mxCell id="0" />
        <mxCell id="1" parent="0" />
        <mxCell id="myeGcNOhKazmhdnHIplM-13" style="edgeStyle=orthogonalEdgeStyle;rounded=0;orthogonalLoop=1;jettySize=auto;html=1;entryX=0.5;entryY=1;entryDx=0;entryDy=0;" edge="1" parent="1" source="myeGcNOhKazmhdnHIplM-1" target="myeGcNOhKazmhdnHIplM-36">
          <mxGeometry relative="1" as="geometry">
            <mxPoint x="600" y="840" as="targetPoint" />
          </mxGeometry>
        </mxCell>
        <mxCell id="myeGcNOhKazmhdnHIplM-21" style="edgeStyle=orthogonalEdgeStyle;rounded=0;orthogonalLoop=1;jettySize=auto;html=1;entryX=1;entryY=0.5;entryDx=0;entryDy=0;" edge="1" parent="1" source="myeGcNOhKazmhdnHIplM-1" target="myeGcNOhKazmhdnHIplM-17">
          <mxGeometry relative="1" as="geometry" />
        </mxCell>
        <mxCell id="myeGcNOhKazmhdnHIplM-1" value="物流塔" style="whiteSpace=wrap;html=1;aspect=fixed;" vertex="1" parent="1">
          <mxGeometry x="540" y="880" width="120" height="120" as="geometry" />
        </mxCell>
        <mxCell id="myeGcNOhKazmhdnHIplM-3" value="" style="whiteSpace=wrap;html=1;aspect=fixed;" vertex="1" parent="1">
          <mxGeometry x="580" y="1450" width="80" height="80" as="geometry" />
        </mxCell>
        <mxCell id="myeGcNOhKazmhdnHIplM-83" style="edgeStyle=orthogonalEdgeStyle;rounded=0;orthogonalLoop=1;jettySize=auto;html=1;entryX=0.5;entryY=0;entryDx=0;entryDy=0;" edge="1" parent="1" source="myeGcNOhKazmhdnHIplM-6" target="myeGcNOhKazmhdnHIplM-16">
          <mxGeometry relative="1" as="geometry" />
        </mxCell>
        <mxCell id="myeGcNOhKazmhdnHIplM-90" style="edgeStyle=orthogonalEdgeStyle;rounded=0;orthogonalLoop=1;jettySize=auto;html=1;" edge="1" parent="1" source="myeGcNOhKazmhdnHIplM-6">
          <mxGeometry relative="1" as="geometry">
            <mxPoint x="300.0000000000001" y="1010" as="targetPoint" />
          </mxGeometry>
        </mxCell>
        <mxCell id="myeGcNOhKazmhdnHIplM-6" value="四向分流器" style="whiteSpace=wrap;html=1;aspect=fixed;fontSize=4;" vertex="1" parent="1">
          <mxGeometry x="470" y="850" width="20" height="20" as="geometry" />
        </mxCell>
        <mxCell id="myeGcNOhKazmhdnHIplM-82" style="edgeStyle=orthogonalEdgeStyle;rounded=0;orthogonalLoop=1;jettySize=auto;html=1;entryX=0.5;entryY=0;entryDx=0;entryDy=0;" edge="1" parent="1" source="myeGcNOhKazmhdnHIplM-16" target="myeGcNOhKazmhdnHIplM-17">
          <mxGeometry relative="1" as="geometry" />
        </mxCell>
        <mxCell id="myeGcNOhKazmhdnHIplM-92" style="edgeStyle=orthogonalEdgeStyle;rounded=0;orthogonalLoop=1;jettySize=auto;html=1;" edge="1" parent="1" source="myeGcNOhKazmhdnHIplM-16">
          <mxGeometry relative="1" as="geometry">
            <mxPoint x="360" y="1010" as="targetPoint" />
          </mxGeometry>
        </mxCell>
        <mxCell id="myeGcNOhKazmhdnHIplM-16" value="四向分流器" style="whiteSpace=wrap;html=1;aspect=fixed;fontSize=4;" vertex="1" parent="1">
          <mxGeometry x="470" y="890" width="20" height="20" as="geometry" />
        </mxCell>
        <mxCell id="myeGcNOhKazmhdnHIplM-23" style="edgeStyle=orthogonalEdgeStyle;rounded=0;orthogonalLoop=1;jettySize=auto;html=1;entryX=0.5;entryY=0;entryDx=0;entryDy=0;" edge="1" parent="1" source="myeGcNOhKazmhdnHIplM-17" target="myeGcNOhKazmhdnHIplM-18">
          <mxGeometry relative="1" as="geometry" />
        </mxCell>
        <mxCell id="myeGcNOhKazmhdnHIplM-91" style="edgeStyle=orthogonalEdgeStyle;rounded=0;orthogonalLoop=1;jettySize=auto;html=1;" edge="1" parent="1" source="myeGcNOhKazmhdnHIplM-17">
          <mxGeometry relative="1" as="geometry">
            <mxPoint x="420" y="1010" as="targetPoint" />
          </mxGeometry>
        </mxCell>
        <mxCell id="myeGcNOhKazmhdnHIplM-17" value="四向分流器" style="whiteSpace=wrap;html=1;aspect=fixed;fontSize=4;" vertex="1" parent="1">
          <mxGeometry x="470" y="930" width="20" height="20" as="geometry" />
        </mxCell>
        <mxCell id="myeGcNOhKazmhdnHIplM-38" style="edgeStyle=orthogonalEdgeStyle;rounded=0;orthogonalLoop=1;jettySize=auto;html=1;" edge="1" parent="1" source="myeGcNOhKazmhdnHIplM-18">
          <mxGeometry relative="1" as="geometry">
            <mxPoint x="480" y="1260.6666666666667" as="targetPoint" />
          </mxGeometry>
        </mxCell>
        <mxCell id="myeGcNOhKazmhdnHIplM-18" value="四向分流器" style="whiteSpace=wrap;html=1;aspect=fixed;fontSize=4;" vertex="1" parent="1">
          <mxGeometry x="470" y="970" width="20" height="20" as="geometry" />
        </mxCell>
        <mxCell id="myeGcNOhKazmhdnHIplM-25" value="" style="endArrow=classic;html=1;entryX=1;entryY=0.5;entryDx=0;entryDy=0;" edge="1" parent="1" target="myeGcNOhKazmhdnHIplM-16">
          <mxGeometry width="50" height="50" relative="1" as="geometry">
            <mxPoint x="539" y="900" as="sourcePoint" />
            <mxPoint x="500" y="900" as="targetPoint" />
          </mxGeometry>
        </mxCell>
        <mxCell id="myeGcNOhKazmhdnHIplM-26" value="" style="endArrow=classic;html=1;entryX=1;entryY=0.5;entryDx=0;entryDy=0;" edge="1" parent="1">
          <mxGeometry width="50" height="50" relative="1" as="geometry">
            <mxPoint x="539" y="979.83" as="sourcePoint" />
            <mxPoint x="490" y="979.83" as="targetPoint" />
          </mxGeometry>
        </mxCell>
        <mxCell id="myeGcNOhKazmhdnHIplM-31" style="edgeStyle=orthogonalEdgeStyle;rounded=0;orthogonalLoop=1;jettySize=auto;html=1;entryX=1;entryY=0.5;entryDx=0;entryDy=0;" edge="1" parent="1" target="myeGcNOhKazmhdnHIplM-6">
          <mxGeometry relative="1" as="geometry">
            <mxPoint x="560" y="880" as="sourcePoint" />
            <mxPoint x="560" y="840" as="targetPoint" />
            <Array as="points">
              <mxPoint x="560" y="860" />
            </Array>
          </mxGeometry>
        </mxCell>
        <mxCell id="myeGcNOhKazmhdnHIplM-34" style="edgeStyle=orthogonalEdgeStyle;rounded=0;orthogonalLoop=1;jettySize=auto;html=1;entryX=0.5;entryY=1;entryDx=0;entryDy=0;" edge="1" parent="1">
          <mxGeometry relative="1" as="geometry">
            <mxPoint x="640" y="1040" as="sourcePoint" />
            <mxPoint x="640" y="1000" as="targetPoint" />
            <Array as="points">
              <mxPoint x="640" y="1020" />
              <mxPoint x="640" y="1020" />
            </Array>
          </mxGeometry>
        </mxCell>
        <mxCell id="myeGcNOhKazmhdnHIplM-84" style="edgeStyle=orthogonalEdgeStyle;rounded=0;orthogonalLoop=1;jettySize=auto;html=1;entryX=0.5;entryY=0;entryDx=0;entryDy=0;" edge="1" parent="1" source="myeGcNOhKazmhdnHIplM-35" target="myeGcNOhKazmhdnHIplM-6">
          <mxGeometry relative="1" as="geometry" />
        </mxCell>
        <mxCell id="myeGcNOhKazmhdnHIplM-89" style="edgeStyle=orthogonalEdgeStyle;rounded=0;orthogonalLoop=1;jettySize=auto;html=1;" edge="1" parent="1" source="myeGcNOhKazmhdnHIplM-35">
          <mxGeometry relative="1" as="geometry">
            <mxPoint x="240" y="1010" as="targetPoint" />
          </mxGeometry>
        </mxCell>
        <mxCell id="myeGcNOhKazmhdnHIplM-35" value="四向分流器" style="whiteSpace=wrap;html=1;aspect=fixed;fontSize=4;" vertex="1" parent="1">
          <mxGeometry x="470" y="810" width="20" height="20" as="geometry" />
        </mxCell>
        <mxCell id="myeGcNOhKazmhdnHIplM-37" style="edgeStyle=orthogonalEdgeStyle;rounded=0;orthogonalLoop=1;jettySize=auto;html=1;entryX=1;entryY=0.5;entryDx=0;entryDy=0;" edge="1" parent="1" source="myeGcNOhKazmhdnHIplM-36" target="myeGcNOhKazmhdnHIplM-35">
          <mxGeometry relative="1" as="geometry" />
        </mxCell>
        <mxCell id="myeGcNOhKazmhdnHIplM-36" value="四向分流器" style="whiteSpace=wrap;html=1;aspect=fixed;fontSize=4;" vertex="1" parent="1">
          <mxGeometry x="590" y="810" width="20" height="20" as="geometry" />
        </mxCell>
        <mxCell id="myeGcNOhKazmhdnHIplM-39" value="熔炉&lt;br&gt;" style="rounded=0;whiteSpace=wrap;html=1;" vertex="1" parent="1">
          <mxGeometry x="440" y="1000" width="30" height="30" as="geometry" />
        </mxCell>
        <mxCell id="myeGcNOhKazmhdnHIplM-40" style="edgeStyle=orthogonalEdgeStyle;rounded=0;orthogonalLoop=1;jettySize=auto;html=1;" edge="1" parent="1">
          <mxGeometry relative="1" as="geometry">
            <mxPoint x="429.58" y="1310" as="targetPoint" />
            <mxPoint x="429.58" y="1030" as="sourcePoint" />
          </mxGeometry>
        </mxCell>
        <mxCell id="myeGcNOhKazmhdnHIplM-42" style="edgeStyle=orthogonalEdgeStyle;rounded=0;orthogonalLoop=1;jettySize=auto;html=1;" edge="1" parent="1">
          <mxGeometry relative="1" as="geometry">
            <mxPoint x="420" y="1260" as="targetPoint" />
            <mxPoint x="420" y="990" as="sourcePoint" />
          </mxGeometry>
        </mxCell>
        <mxCell id="myeGcNOhKazmhdnHIplM-49" value="熔炉&lt;br&gt;" style="rounded=0;whiteSpace=wrap;html=1;" vertex="1" parent="1">
          <mxGeometry x="380" y="1000" width="30" height="30" as="geometry" />
        </mxCell>
        <mxCell id="myeGcNOhKazmhdnHIplM-50" style="edgeStyle=orthogonalEdgeStyle;rounded=0;orthogonalLoop=1;jettySize=auto;html=1;" edge="1" parent="1">
          <mxGeometry relative="1" as="geometry">
            <mxPoint x="369.58" y="1310" as="targetPoint" />
            <mxPoint x="369.58" y="1030" as="sourcePoint" />
          </mxGeometry>
        </mxCell>
        <mxCell id="myeGcNOhKazmhdnHIplM-51" style="edgeStyle=orthogonalEdgeStyle;rounded=0;orthogonalLoop=1;jettySize=auto;html=1;" edge="1" parent="1">
          <mxGeometry relative="1" as="geometry">
            <mxPoint x="360" y="1260" as="targetPoint" />
            <mxPoint x="360" y="990" as="sourcePoint" />
          </mxGeometry>
        </mxCell>
        <mxCell id="myeGcNOhKazmhdnHIplM-53" value="熔炉&lt;br&gt;" style="rounded=0;whiteSpace=wrap;html=1;" vertex="1" parent="1">
          <mxGeometry x="320" y="1000" width="30" height="30" as="geometry" />
        </mxCell>
        <mxCell id="myeGcNOhKazmhdnHIplM-54" style="edgeStyle=orthogonalEdgeStyle;rounded=0;orthogonalLoop=1;jettySize=auto;html=1;" edge="1" parent="1">
          <mxGeometry relative="1" as="geometry">
            <mxPoint x="309.58" y="1310" as="targetPoint" />
            <mxPoint x="309.58" y="1030" as="sourcePoint" />
          </mxGeometry>
        </mxCell>
        <mxCell id="myeGcNOhKazmhdnHIplM-55" style="edgeStyle=orthogonalEdgeStyle;rounded=0;orthogonalLoop=1;jettySize=auto;html=1;" edge="1" parent="1">
          <mxGeometry relative="1" as="geometry">
            <mxPoint x="300" y="1260" as="targetPoint" />
            <mxPoint x="300.0000000000001" y="990" as="sourcePoint" />
          </mxGeometry>
        </mxCell>
        <mxCell id="myeGcNOhKazmhdnHIplM-57" value="熔炉&lt;br&gt;" style="rounded=0;whiteSpace=wrap;html=1;" vertex="1" parent="1">
          <mxGeometry x="260" y="1000" width="30" height="30" as="geometry" />
        </mxCell>
        <mxCell id="myeGcNOhKazmhdnHIplM-58" style="edgeStyle=orthogonalEdgeStyle;rounded=0;orthogonalLoop=1;jettySize=auto;html=1;entryX=0.444;entryY=-0.114;entryDx=0;entryDy=0;entryPerimeter=0;" edge="1" parent="1" target="myeGcNOhKazmhdnHIplM-69">
          <mxGeometry relative="1" as="geometry">
            <mxPoint x="250" y="1290" as="targetPoint" />
            <mxPoint x="250" y="1010" as="sourcePoint" />
            <Array as="points">
              <mxPoint x="249" y="1010" />
            </Array>
          </mxGeometry>
        </mxCell>
        <mxCell id="myeGcNOhKazmhdnHIplM-59" style="edgeStyle=orthogonalEdgeStyle;rounded=0;orthogonalLoop=1;jettySize=auto;html=1;" edge="1" parent="1">
          <mxGeometry relative="1" as="geometry">
            <mxPoint x="240" y="1260" as="targetPoint" />
            <mxPoint x="240" y="990" as="sourcePoint" />
          </mxGeometry>
        </mxCell>
        <mxCell id="myeGcNOhKazmhdnHIplM-61" value="熔炉&lt;br&gt;" style="rounded=0;whiteSpace=wrap;html=1;" vertex="1" parent="1">
          <mxGeometry x="200" y="1000" width="30" height="30" as="geometry" />
        </mxCell>
        <mxCell id="myeGcNOhKazmhdnHIplM-62" style="edgeStyle=orthogonalEdgeStyle;rounded=0;orthogonalLoop=1;jettySize=auto;html=1;" edge="1" parent="1">
          <mxGeometry relative="1" as="geometry">
            <mxPoint x="240" y="1320" as="targetPoint" />
            <mxPoint x="190" y="1010" as="sourcePoint" />
            <Array as="points">
              <mxPoint x="190" y="1200" />
              <mxPoint x="190" y="1200" />
            </Array>
          </mxGeometry>
        </mxCell>
        <mxCell id="myeGcNOhKazmhdnHIplM-74" style="edgeStyle=orthogonalEdgeStyle;rounded=0;orthogonalLoop=1;jettySize=auto;html=1;entryX=0;entryY=0.5;entryDx=0;entryDy=0;" edge="1" parent="1" source="myeGcNOhKazmhdnHIplM-69" target="myeGcNOhKazmhdnHIplM-71">
          <mxGeometry relative="1" as="geometry" />
        </mxCell>
        <mxCell id="myeGcNOhKazmhdnHIplM-78" style="edgeStyle=orthogonalEdgeStyle;rounded=0;orthogonalLoop=1;jettySize=auto;html=1;entryX=0.5;entryY=1;entryDx=0;entryDy=0;" edge="1" parent="1" source="myeGcNOhKazmhdnHIplM-69" target="myeGcNOhKazmhdnHIplM-1">
          <mxGeometry relative="1" as="geometry">
            <mxPoint x="600" y="1060" as="targetPoint" />
            <Array as="points">
              <mxPoint x="250" y="1360" />
              <mxPoint x="600" y="1360" />
            </Array>
          </mxGeometry>
        </mxCell>
        <mxCell id="myeGcNOhKazmhdnHIplM-69" value="四向分流器" style="whiteSpace=wrap;html=1;aspect=fixed;fontSize=4;" vertex="1" parent="1">
          <mxGeometry x="240" y="1310" width="20" height="20" as="geometry" />
        </mxCell>
        <mxCell id="myeGcNOhKazmhdnHIplM-75" style="edgeStyle=orthogonalEdgeStyle;rounded=0;orthogonalLoop=1;jettySize=auto;html=1;entryX=0;entryY=0.5;entryDx=0;entryDy=0;" edge="1" parent="1" source="myeGcNOhKazmhdnHIplM-71" target="myeGcNOhKazmhdnHIplM-72">
          <mxGeometry relative="1" as="geometry" />
        </mxCell>
        <mxCell id="myeGcNOhKazmhdnHIplM-79" style="edgeStyle=orthogonalEdgeStyle;rounded=0;orthogonalLoop=1;jettySize=auto;html=1;" edge="1" parent="1" source="myeGcNOhKazmhdnHIplM-71">
          <mxGeometry relative="1" as="geometry">
            <mxPoint x="310" y="1360" as="targetPoint" />
          </mxGeometry>
        </mxCell>
        <mxCell id="myeGcNOhKazmhdnHIplM-71" value="四向分流器" style="whiteSpace=wrap;html=1;aspect=fixed;fontSize=4;" vertex="1" parent="1">
          <mxGeometry x="300" y="1310" width="20" height="20" as="geometry" />
        </mxCell>
        <mxCell id="myeGcNOhKazmhdnHIplM-76" style="edgeStyle=orthogonalEdgeStyle;rounded=0;orthogonalLoop=1;jettySize=auto;html=1;entryX=0;entryY=0.5;entryDx=0;entryDy=0;" edge="1" parent="1" source="myeGcNOhKazmhdnHIplM-72" target="myeGcNOhKazmhdnHIplM-73">
          <mxGeometry relative="1" as="geometry" />
        </mxCell>
        <mxCell id="myeGcNOhKazmhdnHIplM-80" style="edgeStyle=orthogonalEdgeStyle;rounded=0;orthogonalLoop=1;jettySize=auto;html=1;" edge="1" parent="1" source="myeGcNOhKazmhdnHIplM-72">
          <mxGeometry relative="1" as="geometry">
            <mxPoint x="370" y="1360" as="targetPoint" />
          </mxGeometry>
        </mxCell>
        <mxCell id="myeGcNOhKazmhdnHIplM-72" value="四向分流器" style="whiteSpace=wrap;html=1;aspect=fixed;fontSize=4;" vertex="1" parent="1">
          <mxGeometry x="360" y="1310" width="20" height="20" as="geometry" />
        </mxCell>
        <mxCell id="myeGcNOhKazmhdnHIplM-77" style="edgeStyle=orthogonalEdgeStyle;rounded=0;orthogonalLoop=1;jettySize=auto;html=1;entryX=0.163;entryY=1.023;entryDx=0;entryDy=0;entryPerimeter=0;" edge="1" parent="1" source="myeGcNOhKazmhdnHIplM-73" target="myeGcNOhKazmhdnHIplM-1">
          <mxGeometry relative="1" as="geometry">
            <mxPoint x="560" y="1050" as="targetPoint" />
          </mxGeometry>
        </mxCell>
        <mxCell id="myeGcNOhKazmhdnHIplM-81" style="edgeStyle=orthogonalEdgeStyle;rounded=0;orthogonalLoop=1;jettySize=auto;html=1;" edge="1" parent="1" source="myeGcNOhKazmhdnHIplM-73">
          <mxGeometry relative="1" as="geometry">
            <mxPoint x="430" y="1360" as="targetPoint" />
          </mxGeometry>
        </mxCell>
        <mxCell id="myeGcNOhKazmhdnHIplM-73" value="四向分流器" style="whiteSpace=wrap;html=1;aspect=fixed;fontSize=4;" vertex="1" parent="1">
          <mxGeometry x="420" y="1310" width="20" height="20" as="geometry" />
        </mxCell>
      </root>
    </mxGraphModel>
  </diagram>
</mxfile>
